<mxfile host="app.diagrams.net" modified="2020-08-03T04:52:22.270Z" agent="5.0 (Macintosh; Intel Mac OS X 10_14_1) AppleWebKit/537.36 (KHTML, like Gecko) Chrome/84.0.4147.89 Safari/537.36" etag="IRk34zcugOzO-sO_ejdd" version="13.5.8" type="github">
  <diagram id="yIyg973qpVsaYxa47w4K" name="Page-1">
    <mxGraphModel dx="786" dy="424" grid="1" gridSize="10" guides="1" tooltips="1" connect="1" arrows="1" fold="1" page="1" pageScale="1" pageWidth="827" pageHeight="1169" math="0" shadow="0">
      <root>
        <mxCell id="0" />
        <mxCell id="1" parent="0" />
        <mxCell id="48RK_iuOdJSWhs2NSOel-1" value="用户点击" style="rounded=0;whiteSpace=wrap;html=1;" vertex="1" parent="1">
          <mxGeometry x="100" y="130" width="80" height="50" as="geometry" />
        </mxCell>
        <mxCell id="48RK_iuOdJSWhs2NSOel-2" value="" style="shape=flexArrow;endArrow=classic;html=1;" edge="1" parent="1">
          <mxGeometry width="50" height="50" relative="1" as="geometry">
            <mxPoint x="200" y="154.5" as="sourcePoint" />
            <mxPoint x="270" y="154.5" as="targetPoint" />
          </mxGeometry>
        </mxCell>
        <mxCell id="48RK_iuOdJSWhs2NSOel-3" value="webview初始化" style="rounded=0;whiteSpace=wrap;html=1;" vertex="1" parent="1">
          <mxGeometry x="290" y="130" width="80" height="50" as="geometry" />
        </mxCell>
      </root>
    </mxGraphModel>
  </diagram>
</mxfile>
